<?xml version="1.0" encoding="iso-8859-1"?>
<!-- Uploaded to: SVG Repo, www.svgrepo.com, Generator: SVG Repo Mixer Tools -->
<svg height="800px" width="800px" version="1.1" id="Layer_1" xmlns="http://www.w3.org/2000/svg" xmlns:xlink="http://www.w3.org/1999/xlink" 
	 viewBox="0 0 512 512" xml:space="preserve">
<g>
	<path style="fill:#FFB65F;" d="M34.722,212.202c5.32,0,10.24,1.71,14.241,4.612l21.61,14.91c4.967,3.429,11.646,3.436,16.619,0.017
		l0.156-0.107c21.401-14.713,50.18-14.713,71.593,0.012l0.219,0.15c4.931,3.391,11.605,3.391,16.567-0.021l0.135-0.093
		c21.46-14.753,50.237-14.753,71.652-0.028l0.197,0.136c4.944,3.401,11.618,3.4,16.583-0.019l0.152-0.104
		c21.437-14.757,50.225-14.761,71.651-0.031l0.2,0.138c4.94,3.397,11.611,3.401,16.577-0.016l0.154-0.106
		c21.44-14.738,50.251-14.714,71.68,0.071c4.968,3.43,11.647,3.432,16.621,0.016l22.191-15.255
		c9.248-6.356,21.336-5.43,29.485,1.516c-63.429-55.604-146.495-89.323-237.474-89.323c-90.63,0-172.883,33.816-236.215,89.043
		C23.505,214.274,28.871,212.202,34.722,212.202z"/>
	<path style="fill:#FFB65F;" d="M493.466,218.408l0.005-0.003c-0.05-0.044-0.1-0.086-0.15-0.13
		C493.37,218.318,493.417,218.364,493.466,218.408z"/>
	<path style="fill:#FFB65F;" d="M18.986,218.003c-0.155,0.136-0.314,0.266-0.469,0.402l0.003,0.001
		C18.673,218.269,18.829,218.135,18.986,218.003z"/>
</g>
<polygon style="fill:#CE4500;" points="22.989,259.581 55.413,383.323 456.618,383.323 489.049,259.581 "/>
<path style="fill:#FF9D3B;" d="M255.982,282.822c-12.547,0-25.092-3.68-35.798-11.041l-0.2-0.136
	c-4.94-3.398-11.613-3.398-16.577,0.015l-0.135,0.092c-21.459,14.754-50.234,14.752-71.651,0.031l-0.22-0.151
	c-4.931-3.392-11.603-3.392-16.567,0.021l-0.154,0.106C93.243,286.498,64.43,286.474,43,271.685l-22.063-15.224
	c-6.568-4.532-10.489-12.002-10.489-19.981c0-13.406,10.868-24.277,24.274-24.277c5.32,0,10.24,1.71,14.241,4.612l21.61,14.91
	c4.967,3.429,11.646,3.436,16.619,0.017l0.156-0.107c21.401-14.713,50.18-14.713,71.593,0.012l0.219,0.15
	c4.931,3.391,11.605,3.391,16.567-0.021l0.135-0.092c21.46-14.753,50.237-14.753,71.652-0.028l0.197,0.136
	c4.944,3.401,11.618,3.4,16.583-0.019l0.152-0.104c21.437-14.757,50.225-14.761,71.651-0.03l0.2,0.138
	c4.94,3.397,11.611,3.401,16.577-0.016l0.154-0.106c21.44-14.739,50.251-14.714,71.679,0.071c4.969,3.43,11.647,3.432,16.621,0.016
	l22.191-15.255c11.05-7.595,26.161-4.798,33.755,6.251c7.595,11.047,4.797,26.16-6.251,33.753l-22.192,15.256
	c-21.454,14.751-50.266,14.723-71.696-0.063c-4.965-3.424-11.644-3.435-16.619-0.013l-0.154,0.106
	c-21.402,14.713-50.179,14.713-71.593-0.011l-0.197-0.136c-4.943-3.398-11.616-3.398-16.583,0.019l-0.151,0.104
	C281.11,279.132,268.544,282.822,255.982,282.822z"/>
<path d="M505.882,216.818c-1.856-2.7-4.05-5.08-6.505-7.114c-67.541-58.992-154.08-91.475-243.848-91.475
	c-45.688,0-90.308,8.312-132.619,24.705c-40.637,15.744-78.076,38.493-111.281,67.614c0.004,0.006,0.006,0.013,0.01,0.019
	C4.504,216.934,0,226.189,0,236.48c0,10.704,4.933,20.767,13.295,27.323l32.012,122.169c1.204,4.595,5.356,7.799,10.106,7.799
	h401.205c4.75,0,8.903-3.204,10.106-7.799l32.033-122.22c6.636-5.216,11.102-12.567,12.653-20.941
	C513.099,233.689,511.135,224.458,505.882,216.818z M26.869,247.86c-3.74-2.581-5.973-6.835-5.973-11.38
	c0-7.625,6.202-13.829,13.826-13.829c2.939,0,5.742,0.906,8.106,2.621c0.067,0.048,0.134,0.095,0.202,0.142l21.609,14.909
	c8.511,5.875,19.954,5.885,28.492,0.015l0.136-0.093c17.868-12.284,41.882-12.28,59.764,0.018l0.21,0.144
	c8.487,5.834,19.901,5.826,28.38-0.003l0.161-0.11c17.902-12.308,41.938-12.319,59.81-0.031l0.2,0.138
	c8.496,5.844,19.92,5.835,28.42-0.016l0.161-0.11c17.887-12.313,41.922-12.325,59.79-0.04l0.216,0.149
	c8.493,5.839,19.914,5.833,28.384,0.006l0.185-0.126c17.897-12.305,41.942-12.281,59.824,0.06
	c8.507,5.873,19.949,5.884,28.475,0.027l22.19-15.255c3.045-2.093,6.723-2.873,10.353-2.203c3.631,0.673,6.782,2.719,8.875,5.763
	c2.092,3.044,2.874,6.719,2.201,10.35c-0.673,3.632-2.719,6.783-5.763,8.876l-22.192,15.257
	c-17.906,12.309-41.955,12.289-59.844-0.054c-8.514-5.872-19.955-5.879-28.457-0.03l-0.166,0.114
	c-17.868,12.283-41.88,12.279-59.736,0.001l-0.216-0.149c-8.496-5.842-19.919-5.832-28.404,0.007l-0.174,0.119
	c-8.772,6.038-19.122,9.23-29.928,9.23c-10.791,0-21.123-3.182-29.906-9.222l-0.17-0.116c-8.49-5.84-19.91-5.835-28.39-0.005
	l-0.162,0.111c-17.9,12.305-41.936,12.318-59.821,0.024l-0.21-0.144c-4.24-2.916-9.208-4.372-14.181-4.372
	c-4.98,0-9.963,1.463-14.214,4.384l-0.166,0.114c-17.897,12.306-41.941,12.281-59.828-0.064L26.869,247.86z M255.529,139.126
	c74.156,0,145.977,23.49,205.48,66.687c-1.166,0.621-2.307,1.303-3.411,2.061l-22.187,15.254c-1.406,0.965-3.367,0.965-4.771-0.003
	c-24.97-17.229-58.538-17.261-83.501-0.102l-0.188,0.129c-1.4,0.963-3.349,0.969-4.718,0.026l-0.217-0.15
	c-24.971-17.168-58.526-17.154-83.485,0.028l-0.161,0.11c-1.4,0.964-3.35,0.972-4.736,0.018l-0.202-0.139
	c-24.955-17.158-58.508-17.146-83.464,0.01l-0.162,0.111c-1.402,0.964-3.347,0.973-4.737,0.016l-0.21-0.144
	c-24.954-17.16-58.483-17.165-83.452,0l-0.137,0.095c-1.401,0.965-3.36,0.961-4.764-0.007l-21.521-14.849
	c-1.275-0.917-2.607-1.722-3.973-2.45C110.574,162.621,182.061,139.126,255.529,139.126z M448.555,372.875H63.476l-23.815-90.888
	c24.665,15.506,56.8,14.975,80.926-1.613l0.166-0.114c1.402-0.963,3.347-0.974,4.739-0.016l0.212,0.145
	c24.956,17.156,58.509,17.143,83.462-0.013l0.161-0.11c1.402-0.964,3.349-0.971,4.766,0.004l0.171,0.117
	c12.255,8.426,26.681,12.88,41.718,12.88c15.057,0,29.502-4.465,41.755-12.898l0.173-0.118c1.402-0.964,3.352-0.972,4.721-0.029
	l0.216,0.149c24.954,17.158,58.483,17.163,83.419,0.021l0.168-0.115c1.402-0.964,3.362-0.962,4.764,0.004
	c24.199,16.696,56.474,17.242,81.198,1.622L448.555,372.875z"/>
<path d="M225.852,337.342h-0.137c-5.77,0-10.448,4.678-10.448,10.448c0,5.77,4.678,10.448,10.448,10.448h0.137
	c5.77,0,10.448-4.678,10.448-10.448C236.3,342.02,231.623,337.342,225.852,337.342z"/>
<path d="M191.915,337.343H80.87c-5.77,0-10.448,4.678-10.448,10.448c0,5.77,4.678,10.448,10.448,10.448h111.044
	c5.77,0,10.448-4.678,10.448-10.448C202.362,342.021,197.685,337.343,191.915,337.343z"/>
<path d="M131.665,205.29c5.77,0,10.448-4.678,10.448-10.448v-14.233c0-5.77-4.678-10.448-10.448-10.448s-10.448,4.678-10.448,10.448
	v14.233C121.217,200.613,125.895,205.29,131.665,205.29z"/>
<path d="M193.831,186.484c5.77,0,10.448-4.678,10.448-10.448v-14.233c0-5.77-4.678-10.448-10.448-10.448
	s-10.448,4.678-10.448,10.448v14.233C183.383,181.806,188.061,186.484,193.831,186.484z"/>
<path d="M255.997,205.29c5.77,0,10.448-4.678,10.448-10.448v-14.233c0-5.77-4.678-10.448-10.448-10.448s-10.448,4.678-10.448,10.448
	v14.233C245.549,200.613,250.226,205.29,255.997,205.29z"/>
<path d="M318.163,186.484c5.77,0,10.448-4.678,10.448-10.448v-14.233c0-5.77-4.678-10.448-10.448-10.448
	c-5.77,0-10.448,4.678-10.448,10.448v14.233C307.715,181.806,312.392,186.484,318.163,186.484z"/>
<path d="M380.329,205.29c5.77,0,10.448-4.678,10.448-10.448v-14.233c0-5.77-4.678-10.448-10.448-10.448
	c-5.77,0-10.448,4.678-10.448,10.448v14.233C369.881,200.613,374.558,205.29,380.329,205.29z"/>
</svg>